<?xml version="1.0" encoding="UTF-8" standalone="no"?>
<!DOCTYPE svg PUBLIC "-//W3C//DTD SVG 1.1//EN" "http://www.w3.org/Graphics/SVG/1.1/DTD/svg11.dtd">
<svg width="100%" height="100%" viewBox="0 0 776 761" version="1.1" xmlns="http://www.w3.org/2000/svg" xmlns:xlink="http://www.w3.org/1999/xlink" xml:space="preserve" xmlns:serif="http://www.serif.com/" style="fill-rule:evenodd;clip-rule:evenodd;stroke-linejoin:round;stroke-miterlimit:2;">
    <g transform="matrix(1,0,0,1,38257.946538,-15584.019711)">
        <g transform="matrix(0.116012,0,0,0.116012,-33819.57921,13776.091942)">
            <g transform="matrix(0.839312,0,0,0.839312,-5610.835893,3083.56879)">
                <path d="M-30937.59,16847.247L-30937.59,20754.359C-30937.59,21832.556 -31812.949,22707.915 -32891.146,22707.915L-36943.921,22707.915C-38022.118,22707.915 -38897.477,21832.556 -38897.477,20754.359L-38897.477,16847.247C-38897.477,15769.051 -38022.118,14893.692 -36943.921,14893.692L-32891.146,14893.692C-31812.949,14893.692 -30937.59,15769.051 -30937.59,16847.247Z" style="fill:rgb(245,240,232);"/>
            </g>
            <g transform="matrix(1.339259,0,0,1.339259,11997.454079,15043.521944)">
                <g transform="matrix(2.074855,0,0,2.074855,-37033.570214,415.831122)">
                    <path d="M770.122,1153.309L639.279,1006.954C636.131,1003.357 633.546,1002.008 631.523,1002.907C629.499,1003.806 628.488,1006.504 628.488,1011L628.488,1149.262C628.488,1153.759 626.914,1157.581 623.767,1160.728C620.619,1163.875 616.797,1165.449 612.301,1165.449L511.134,1165.449C506.188,1165.449 502.253,1163.875 499.331,1160.728C496.408,1157.581 494.947,1153.759 494.947,1149.262L494.947,687.939C494.947,683.443 496.408,679.621 499.331,676.474C502.253,673.326 506.188,671.753 511.134,671.753L612.301,671.753C616.797,671.753 620.619,673.326 623.767,676.474C626.914,679.621 628.488,683.443 628.488,687.939L628.488,843.063C628.488,847.559 629.387,850.144 631.185,850.819C632.984,851.493 635.232,850.032 637.93,846.435L759.331,685.242C762.029,681.645 765.85,678.609 770.796,676.137C775.742,673.664 780.688,672.427 785.634,672.427L914.454,672.427C919.4,672.427 922.547,674.563 923.896,678.834C925.245,683.106 924.571,687.04 921.873,690.637L744.493,912.531C741.795,916.128 740.559,920.287 740.783,925.008C741.008,929.729 742.694,933.664 745.842,936.811C761.129,953.447 777.316,970.758 794.402,988.744C811.488,1006.729 828.462,1024.827 845.323,1043.037C862.184,1061.247 878.821,1079.232 895.232,1096.993C911.644,1114.753 927.269,1131.277 942.106,1146.565C945.254,1150.162 946.378,1154.208 945.479,1158.705C944.579,1163.201 941.657,1165.449 936.711,1165.449L797.1,1165.449C792.154,1165.449 787.096,1164.325 781.925,1162.077C776.754,1159.829 772.82,1156.906 770.122,1153.309Z"/>
                </g>
                <g transform="matrix(2.074855,0,0,2.074855,-37033.570214,415.831122)">
                    <path d="M925.245,918.601C925.245,883.53 931.99,850.482 945.479,819.457C958.968,788.432 977.178,761.342 1000.109,738.186C1023.04,715.03 1050.018,696.707 1081.043,683.218C1112.068,669.729 1145.116,662.985 1180.187,662.985C1215.258,662.985 1248.306,669.729 1279.331,683.218C1310.356,696.707 1337.446,715.03 1360.602,738.186C1383.758,761.342 1402.081,788.432 1415.57,819.457C1429.059,850.482 1435.803,883.53 1435.803,918.601C1435.803,953.672 1429.059,986.72 1415.57,1017.745C1402.081,1048.77 1383.758,1075.86 1360.602,1099.016C1337.446,1122.172 1310.356,1140.495 1279.331,1153.984C1248.306,1167.473 1215.258,1174.217 1180.187,1174.217C1145.116,1174.217 1112.068,1167.473 1081.043,1153.984C1050.018,1140.495 1023.04,1122.172 1000.109,1099.016C977.178,1075.86 958.968,1048.77 945.479,1017.745C931.99,986.72 925.245,953.672 925.245,918.601ZM1058.786,918.601C1058.786,935.687 1061.933,951.874 1068.228,967.161C1074.523,982.449 1083.179,995.938 1094.195,1007.628C1105.211,1019.319 1118.138,1028.648 1132.975,1035.618C1147.813,1042.587 1163.55,1046.072 1180.187,1046.072C1196.823,1046.072 1212.56,1042.587 1227.398,1035.618C1242.236,1028.648 1255.276,1019.319 1266.516,1007.628C1277.757,995.938 1286.525,982.449 1292.82,967.161C1299.115,951.874 1302.262,935.687 1302.262,918.601C1302.262,901.964 1299.115,885.89 1292.82,870.378C1286.525,854.865 1277.757,841.376 1266.516,829.911C1255.276,818.445 1242.236,809.228 1227.398,802.258C1212.56,795.289 1196.823,791.804 1180.187,791.804C1163.55,791.804 1147.813,795.289 1132.975,802.258C1118.138,809.228 1105.211,818.445 1094.195,829.911C1083.179,841.376 1074.523,854.865 1068.228,870.378C1061.933,885.89 1058.786,901.964 1058.786,918.601Z"/>
                </g>
                <g transform="matrix(2.074855,0,0,2.074855,-39132.645855,1766.766461)">
                    <path d="M1506.62,1149.262L1506.62,687.939C1506.62,683.443 1508.194,679.621 1511.341,676.474C1514.489,673.326 1518.311,671.753 1522.807,671.753L1706.931,671.753C1777.524,671.753 1835.302,692.436 1880.265,733.802C1904.545,756.284 1922.98,783.037 1935.57,814.061C1948.159,845.086 1954.454,879.932 1954.454,918.601C1954.454,957.269 1948.159,992.228 1935.57,1023.478C1922.98,1054.727 1904.545,1081.593 1880.265,1104.074C1857.783,1124.308 1832.042,1139.595 1803.04,1149.937C1774.039,1160.278 1742.003,1165.449 1706.931,1165.449L1522.807,1165.449C1518.311,1165.449 1514.489,1163.875 1511.341,1160.728C1508.194,1157.581 1506.62,1153.759 1506.62,1149.262ZM1656.348,1041.351L1706.931,1041.351C1719.521,1041.351 1732.561,1039.777 1746.05,1036.629C1759.538,1033.482 1771.679,1027.524 1782.47,1018.757C1793.261,1009.989 1802.141,997.624 1809.11,981.662C1816.08,965.7 1819.564,944.904 1819.564,919.275C1819.564,893.646 1816.08,872.851 1809.11,856.889C1802.141,840.927 1793.149,828.562 1782.133,819.794C1771.117,811.026 1758.976,805.069 1745.712,801.921C1732.448,798.774 1719.521,797.2 1706.931,797.2L1656.348,797.2C1651.851,797.2 1648.03,798.774 1644.882,801.921C1641.735,805.069 1640.161,808.891 1640.161,813.387L1640.161,1025.164C1640.161,1029.66 1641.735,1033.482 1644.882,1036.629C1648.03,1039.777 1651.851,1041.351 1656.348,1041.351Z"/>
                </g>
                <g transform="matrix(2.074855,0,0,2.074855,-39132.645855,1766.766461)">
                    <path d="M2147.347,812.038L2147.347,840.365C2147.347,844.861 2148.92,848.683 2152.068,851.83C2155.215,854.978 2159.037,856.552 2163.533,856.552L2346.309,856.552C2350.805,856.552 2354.627,858.125 2357.775,861.273C2360.922,864.42 2362.496,868.242 2362.496,872.738L2362.496,965.812C2362.496,970.309 2360.922,974.131 2357.775,977.278C2354.627,980.425 2350.805,981.999 2346.309,981.999L2163.533,981.999C2159.037,981.999 2155.215,983.573 2152.068,986.72C2148.92,989.868 2147.347,993.69 2147.347,998.186L2147.347,1023.815C2147.347,1028.311 2148.92,1032.133 2152.068,1035.281C2155.215,1038.428 2159.037,1040.002 2163.533,1040.002L2373.287,1040.002C2377.783,1040.002 2381.605,1041.575 2384.753,1044.723C2387.9,1047.87 2389.474,1051.692 2389.474,1056.188L2389.474,1149.262C2389.474,1153.759 2387.9,1157.581 2384.753,1160.728C2381.605,1163.875 2377.783,1165.449 2373.287,1165.449L2029.993,1165.449C2025.496,1165.449 2021.674,1163.875 2018.527,1160.728C2015.379,1157.581 2013.806,1153.759 2013.806,1149.262L2013.806,687.939C2013.806,683.443 2015.379,679.621 2018.527,676.474C2021.674,673.326 2025.496,671.753 2029.993,671.753L2373.287,671.753C2377.783,671.753 2381.605,673.326 2384.753,676.474C2387.9,679.621 2389.474,683.443 2389.474,687.939L2389.474,779.664C2389.474,784.161 2387.9,787.983 2384.753,791.13C2381.605,794.277 2377.783,795.851 2373.287,795.851L2163.533,795.851C2159.037,795.851 2155.215,797.425 2152.068,800.572C2148.92,803.72 2147.347,807.542 2147.347,812.038Z"/>
                </g>
                <g transform="matrix(2.074855,0,0,2.074855,-35817.13804,-338.545319)">
                    <path d="M702.003,973.906L486.853,973.906C482.357,973.906 478.535,972.332 475.388,969.185C472.24,966.037 470.667,962.215 470.667,957.719L470.667,866.668C470.667,861.722 472.24,857.788 475.388,854.865C478.535,851.943 482.357,850.482 486.853,850.482L702.003,850.482C706.499,850.482 710.321,851.943 713.468,854.865C716.616,857.788 718.189,861.722 718.189,866.668L718.189,957.719C718.189,962.215 716.616,966.037 713.468,969.185C710.321,972.332 706.499,973.906 702.003,973.906Z"/>
                </g>
            </g>
        </g>
    </g>
</svg>
