<?xml version="1.0" encoding="UTF-8" standalone="no"?><!DOCTYPE svg PUBLIC "-//W3C//DTD SVG 1.1//EN" "http://www.w3.org/Graphics/SVG/1.1/DTD/svg11.dtd"><svg width="100%" height="100%" viewBox="0 0 1184 143" version="1.1" xmlns="http://www.w3.org/2000/svg" xmlns:xlink="http://www.w3.org/1999/xlink" xml:space="preserve" xmlns:serif="http://www.serif.com/" style="fill-rule:evenodd;clip-rule:evenodd;stroke-linejoin:round;stroke-miterlimit:2;"><g><g id="Layer_1-2"><g id="Layer_1-2-2"><path d="M158.839,22.845l0,101.734c0.039,9.586 -7.799,17.513 -17.385,17.583l-71.541,0l0,-61.434l23.863,0c0.005,0 0.009,0 0.014,0c4.031,0 7.349,-3.317 7.349,-7.349c0,-0.002 -0,-0.005 -0,-0.007l-0,-6.641c-0.015,-4.026 -3.337,-7.328 -7.363,-7.32l-93.777,0l0,-42.295c-0,-0.002 -0,-0.005 -0,-0.007c-0,-9.386 7.723,-17.109 17.109,-17.109c0.002,-0 0.005,0 0.007,0l118.921,0c12.513,0.012 22.802,10.311 22.802,22.824c0,0.007 -0,0.014 -0,0.021Z" style="fill:#fff;fill-rule:nonzero;"/></g></g><g transform="matrix(144.860861,0,0,144.860861,1188.991241,127.423836)"></g><text x="185.54px" y="127.424px" style="font-family:'Satoshi-Black', 'Satoshi';font-weight:900;font-size:144.861px;fill:#fff;">T<tspan x="258.26px 319.391px 423.836px 514.374px 546.968px 627.945px 712.254px 815.685px 920.129px 960.111px 1069.771px " y="127.424px 127.424px 127.424px 127.424px 127.424px 127.424px 127.424px 127.424px 127.424px 127.424px 127.424px ">-DB STUDIO©</tspan></text></g></svg>