<?xml version="1.0" encoding="UTF-8" standalone="no"?><!DOCTYPE svg PUBLIC "-//W3C//DTD SVG 1.1//EN" "http://www.w3.org/Graphics/SVG/1.1/DTD/svg11.dtd"><svg width="100%" height="100%" viewBox="0 0 1497 165" version="1.1" xmlns="http://www.w3.org/2000/svg" xmlns:xlink="http://www.w3.org/1999/xlink" xml:space="preserve" xmlns:serif="http://www.serif.com/" style="fill-rule:evenodd;clip-rule:evenodd;stroke-linejoin:round;stroke-miterlimit:2;"><g><g><g id="Layer_1-2"><g id="Layer_1-2-2"><path d="M158.839,22.845l0,101.734c0.039,9.586 -7.799,17.513 -17.385,17.583l-71.541,0l0,-61.434l23.863,0c0.005,0 0.009,0 0.014,0c4.031,0 7.349,-3.317 7.349,-7.349c0,-0.002 -0,-0.005 -0,-0.007l-0,-6.641c-0.015,-4.026 -3.337,-7.328 -7.363,-7.32l-93.777,0l0,-42.295c-0,-0.002 -0,-0.005 -0,-0.007c-0,-9.386 7.723,-17.109 17.109,-17.109c0.002,-0 0.005,0 0.007,0l118.921,0c12.513,0.012 22.802,10.311 22.802,22.824c0,0.007 -0,0.014 -0,0.021Z" style="fill:#fff;fill-rule:nonzero;"/></g></g><g><path d="M188.437,41.956l30.421,0l0,85.468l23.467,0l0,-85.468l30.421,0l0,-21.729l-84.309,0l0,21.729Z" style="fill:#fff;fill-rule:nonzero;"/><path d="M300.56,127.424l0,-39.692c0,-8.981 5.65,-14.776 14.486,-14.776c7.678,0 12.748,5.939 12.748,15.066l0,39.402l22.309,0l0,-44.762c0,-18.977 -9.995,-29.986 -27.234,-29.986c-9.416,0 -17.673,3.622 -22.164,9.851l0,-44.327l-22.453,0l0,109.225l22.309,0Z" style="fill:#fff;fill-rule:nonzero;"/><path d="M393.85,129.307c19.846,0 34.187,-10.285 36.795,-26.365l-20.425,0c-1.593,5.215 -7.533,8.257 -15.935,8.257c-9.851,0 -15.21,-4.491 -16.514,-14.052l52.584,-0.29l0,-5.65c0,-23.612 -14.196,-38.533 -36.94,-38.533c-21.874,0 -37.084,15.79 -37.084,38.388c0,22.309 15.645,38.243 37.519,38.243Zm-0.29,-58.524c8.981,0 14.631,4.925 14.631,12.603l-30.131,0c1.738,-8.692 6.664,-12.603 15.5,-12.603Z" style="fill:#fff;fill-rule:nonzero;"/><rect x="438.033" y="78.461" width="49.542" height="19.701" style="fill:#fff;fill-rule:nonzero;"/><path d="M543.636,127.424c30.566,0 51.86,-22.019 51.86,-53.309c0,-31.869 -21.874,-53.888 -53.309,-53.888l-40.561,0l0,107.197l42.01,0Zm-3.766,-85.468c19.411,0 30.855,11.879 30.855,32.159c0,19.846 -10.865,31.58 -29.407,31.58l-16.224,0l0,-63.739l14.776,0Z" style="fill:#fff;fill-rule:nonzero;"/><path d="M653.151,54.993c-3.042,-0.724 -5.939,-1.014 -8.547,-1.014c-9.706,0 -16.08,4.78 -19.122,11.879l-1.159,-10.72l-21.005,0l0,72.286l22.309,0l0,-31.435c0,-14.341 7.678,-19.991 20.425,-19.991l7.098,0l0,-21.005Z" style="fill:#fff;fill-rule:nonzero;"/><path d="M677.632,129.307c10.865,0 20.425,-4.78 22.743,-11.444l1.449,9.561l19.701,0l0,-42.299c0,-20.715 -11.879,-32.449 -32.883,-32.449c-20.715,0 -34.187,10.72 -34.187,27.089l18.542,0c0,-6.519 5.07,-10.14 14.486,-10.14c7.967,0 12.313,3.766 12.313,10.865l0,1.159l-20.281,1.593c-17.383,1.304 -26.799,9.561 -26.799,22.888c0,14.196 9.561,23.178 24.916,23.178Zm7.822,-16.514c-6.808,0 -9.995,-2.463 -9.995,-7.678c0,-4.636 3.477,-6.808 13.182,-7.678l11.299,-1.014l0,3.911c0,8.257 -5.939,12.458 -14.486,12.458Z" style="fill:#fff;fill-rule:nonzero;"/><path d="M745.862,127.424l21.729,0l6.953,-22.598c4.636,-15.21 5.939,-20.86 6.519,-23.902c0.435,3.042 2.318,11.589 5.939,23.467l6.953,23.033l20.715,0l25.351,-72.43l-23.612,0l-6.953,23.612c-0.724,2.607 -4.201,15.355 -5.07,20.57c-0.724,-4.636 -4.201,-18.108 -4.925,-20.57l-6.808,-23.612l-22.888,0l-7.388,23.612c-3.187,10.14 -3.911,12.893 -5.215,20.57c-1.159,-7.243 -2.752,-14.341 -4.491,-20.57l-6.664,-23.612l-23.467,0l23.323,72.43Z" style="fill:#fff;fill-rule:nonzero;"/><path d="M855.087,43.694c6.953,0 12.603,-5.65 12.603,-12.748c0,-7.098 -5.65,-12.603 -12.603,-12.603c-7.098,0 -12.748,5.505 -12.748,12.603c0,7.098 5.65,12.748 12.748,12.748Zm-11.009,83.73l22.309,0l0,-72.43l-22.309,0l0,72.43Z" style="fill:#fff;fill-rule:nonzero;"/><path d="M899.704,127.424l0,-39.692c0,-8.981 5.65,-14.776 14.486,-14.776c7.678,0 12.748,5.939 12.748,15.066l0,39.402l22.309,0l0,-44.762c0,-18.977 -9.995,-29.986 -27.234,-29.986c-9.416,0 -17.673,3.622 -22.164,9.851l-1.449,-7.533l-21.005,0l0,72.43l22.309,0Z" style="fill:#fff;fill-rule:nonzero;"/><path d="M955.765,89.905c0,21.729 14.052,36.65 34.332,36.65c9.416,0 17.528,-3.332 21.874,-8.547l0,9.416c0,10.285 -6.808,16.659 -17.528,16.659c-9.851,0 -15.935,-4.78 -16.369,-12.893l-22.598,0c2.028,20.57 16.949,33.173 39.112,33.173c24.771,0 39.692,-15.645 39.692,-41.575l0,-67.795l-21.005,0l-1.159,7.243c-3.911,-5.939 -11.734,-9.706 -21.584,-9.706c-20.425,0 -34.767,15.355 -34.767,37.374Zm22.453,-0.579c0,-10.285 6.808,-17.383 16.659,-17.383c10.285,0 17.094,6.808 17.094,17.383c0,10.72 -6.808,17.818 -16.949,17.818c-9.851,0 -16.804,-7.388 -16.804,-17.818Z" style="fill:#fff;fill-rule:nonzero;"/><path d="M1048.042,127.424l44.617,0c23.178,0 35.925,-10.575 35.925,-29.552c0,-12.168 -5.65,-20.425 -16.224,-23.902c9.706,-4.201 14.921,-12.603 14.921,-24.047c0,-18.397 -13.037,-29.696 -34.622,-29.696l-44.617,0l0,107.197Zm42.155,-86.627c8.547,0 13.037,3.911 13.037,11.444c0,7.678 -4.636,11.879 -13.037,11.879l-18.687,0l0,-23.323l18.687,0Zm1.159,43.024c8.547,0 13.182,3.911 13.182,11.154c0,7.967 -4.491,11.879 -13.182,11.879l-19.846,0l0,-23.033l19.846,0Z" style="fill:#fff;fill-rule:nonzero;"/><path d="M1131.916,91.064c0,22.888 16.804,38.098 39.982,38.098c23.033,0 39.837,-15.21 39.837,-38.098c0,-22.888 -16.804,-38.243 -39.837,-38.243c-23.178,0 -39.982,15.355 -39.982,38.243Zm22.453,-0.145c0,-10.865 7.098,-18.108 17.528,-18.108c10.285,0 17.383,7.243 17.383,18.108c0,11.009 -7.098,18.252 -17.383,18.252c-10.43,0 -17.528,-7.243 -17.528,-18.252Z" style="fill:#fff;fill-rule:nonzero;"/><path d="M1240.707,129.307c10.865,0 20.425,-4.78 22.743,-11.444l1.449,9.561l19.701,0l0,-42.299c0,-20.715 -11.879,-32.449 -32.883,-32.449c-20.715,0 -34.187,10.72 -34.187,27.089l18.542,0c0,-6.519 5.07,-10.14 14.486,-10.14c7.967,0 12.313,3.766 12.313,10.865l0,1.159l-20.281,1.593c-17.383,1.304 -26.799,9.561 -26.799,22.888c0,14.196 9.561,23.178 24.916,23.178Zm7.822,-16.514c-6.808,0 -9.995,-2.463 -9.995,-7.678c0,-4.636 3.477,-6.808 13.182,-7.678l11.299,-1.014l0,3.911c0,8.257 -5.939,12.458 -14.486,12.458Z" style="fill:#fff;fill-rule:nonzero;"/><path d="M1344.572,54.993c-3.042,-0.724 -5.939,-1.014 -8.547,-1.014c-9.706,0 -16.08,4.78 -19.122,11.879l-1.159,-10.72l-21.005,0l0,72.286l22.309,0l0,-31.435c0,-14.341 7.678,-19.991 20.425,-19.991l7.098,0l0,-21.005Z" style="fill:#fff;fill-rule:nonzero;"/><path d="M1378.324,129.307c10.43,0 19.411,-4.491 23.323,-11.154l1.159,9.271l21.005,0l0,-109.225l-22.309,0l0,43.458c-4.201,-5.36 -12.748,-8.981 -21.729,-8.981c-22.019,0 -35.781,15.935 -35.781,38.968c0,22.888 13.472,37.664 34.332,37.664Zm5.36,-20.425c-10.575,0 -17.238,-7.388 -17.238,-18.108c0,-10.72 6.664,-18.108 17.238,-18.108c10.43,0 17.673,7.243 17.673,18.108c0,10.865 -7.243,18.108 -17.673,18.108Z" style="fill:#fff;fill-rule:nonzero;"/><path d="M1464.372,82.082c18.252,0 31.869,-13.617 31.869,-31.869c0,-18.252 -13.617,-31.869 -31.869,-31.869c-18.108,0 -32.159,13.907 -32.159,31.869c0,18.108 13.907,31.869 32.159,31.869Zm0,-6.084c-14.776,0 -25.64,-10.865 -25.64,-25.785c0,-14.776 10.865,-25.785 25.64,-25.785c14.631,0 25.351,10.865 25.351,25.785c0,14.921 -10.72,25.785 -25.351,25.785Zm-6.808,-8.257l0,-12.748l8.837,0l6.519,12.748l7.098,0l-7.678,-14.486c4.491,-1.883 7.243,-5.939 7.243,-10.72c0,-6.808 -5.36,-10.865 -13.472,-10.865l-15.066,0l0,36.07l6.519,0Zm15.066,-24.481c0,3.477 -2.463,5.794 -6.664,5.794l-8.402,0l0,-11.154l8.402,0c4.346,0 6.664,1.738 6.664,5.36Z" style="fill:#fff;fill-rule:nonzero;"/></g></g></g></svg>