<?xml version="1.0" encoding="UTF-8" standalone="no"?>
<!DOCTYPE svg PUBLIC "-//W3C//DTD SVG 1.1//EN" "http://www.w3.org/Graphics/SVG/1.1/DTD/svg11.dtd">
<svg width="100%" height="100%" viewBox="0 0 306 412" version="1.1" xmlns="http://www.w3.org/2000/svg" xmlns:xlink="http://www.w3.org/1999/xlink" xml:space="preserve" xmlns:serif="http://www.serif.com/" style="fill-rule:evenodd;clip-rule:evenodd;stroke-linejoin:round;stroke-miterlimit:2;">
    <g transform="matrix(1,0,0,1,38523.72217,-15773.882343)">
        <g transform="matrix(0.288658,0,0,0.288658,-26825.619703,15815.582479)">
            <g transform="matrix(2.074855,0,0,2.074855,-42445.631098,-1154.711822)">
                <path d="M925.245,918.601C925.245,883.53 931.99,850.482 945.479,819.457C958.968,788.432 977.178,761.342 1000.109,738.186C1023.04,715.03 1050.018,696.707 1081.043,683.218C1112.068,669.729 1145.116,662.985 1180.187,662.985C1215.258,662.985 1248.306,669.729 1279.331,683.218C1310.356,696.707 1337.446,715.03 1360.602,738.186C1383.758,761.342 1402.081,788.432 1415.57,819.457C1429.059,850.482 1435.803,883.53 1435.803,918.601C1435.803,953.672 1429.059,986.72 1415.57,1017.745C1402.081,1048.77 1383.758,1075.86 1360.602,1099.016C1337.446,1122.172 1310.356,1140.495 1279.331,1153.984C1248.306,1167.473 1215.258,1174.217 1180.187,1174.217C1145.116,1174.217 1112.068,1167.473 1081.043,1153.984C1050.018,1140.495 1023.04,1122.172 1000.109,1099.016C977.178,1075.86 958.968,1048.77 945.479,1017.745C931.99,986.72 925.245,953.672 925.245,918.601ZM1058.786,918.601C1058.786,935.687 1061.933,951.874 1068.228,967.161C1074.523,982.449 1083.179,995.938 1094.195,1007.628C1105.211,1019.319 1118.138,1028.648 1132.975,1035.618C1147.813,1042.587 1163.55,1046.072 1180.187,1046.072C1196.823,1046.072 1212.56,1042.587 1227.398,1035.618C1242.236,1028.648 1255.276,1019.319 1266.516,1007.628C1277.757,995.938 1286.525,982.449 1292.82,967.161C1299.115,951.874 1302.262,935.687 1302.262,918.601C1302.262,901.964 1299.115,885.89 1292.82,870.378C1286.525,854.865 1277.757,841.376 1266.516,829.911C1255.276,818.445 1242.236,809.228 1227.398,802.258C1212.56,795.289 1196.823,791.804 1180.187,791.804C1163.55,791.804 1147.813,795.289 1132.975,802.258C1118.138,809.228 1105.211,818.445 1094.195,829.911C1083.179,841.376 1074.523,854.865 1068.228,870.378C1061.933,885.89 1058.786,901.964 1058.786,918.601Z"/>
            </g>
            <g transform="matrix(2.074855,0,0,2.074855,-41229.198925,-1909.088264)">
                <path d="M702.003,973.906L486.853,973.906C482.357,973.906 478.535,972.332 475.388,969.185C472.24,966.037 470.667,962.215 470.667,957.719L470.667,866.668C470.667,861.722 472.24,857.788 475.388,854.865C478.535,851.943 482.357,850.482 486.853,850.482L702.003,850.482C706.499,850.482 710.321,851.943 713.468,854.865C716.616,857.788 718.189,861.722 718.189,866.668L718.189,957.719C718.189,962.215 716.616,966.037 713.468,969.185C710.321,972.332 706.499,973.906 702.003,973.906Z"/>
            </g>
        </g>
    </g>
</svg>
